# xmcd
#
# Track frame offsets: 
#        150
#        19144
#        40453
#        55501
#        72323
#        89855
#        108119
#        129262
#        148763
#        165856
#        184822
#        204108
#        221216
#        237038
#        254086
#        270565
#        288711
#        305799
#        326937
#
# Disc length: 4603 seconds
#
# Revision: 0
# Processed by: cddbd v1.5.2PL0 Copyright (c) Steve Scherf et al.
# Submitted via: ExactAudioCopy v1.1
#
DISCID=2511f913
DTITLE=Various Artist - Q-Music Top 500 Van De 90's 2018 - CD 2
DYEAR=2018
DGENRE=Top 40
TTITLE0=2 Brothers On The 4th Floor - Never Alone
TTITLE1=Paul De Leeuw - 'k Heb Je Lief
TTITLE2=Anouk - R U Kiddin' Me
TTITLE3=Vengaboys - We Like To Party
TTITLE4=Cher - Believe
TTITLE5=Ricky Martin - Livin' La Vida Loca
TTITLE6=Faithless - Insomnia
TTITLE7=De Poema's - Mijn Houten Hart
TTITLE8=Lipstick - I'm A Raver
TTITLE9=Babyface - How Come, How Long
TTITLE10=MC Hammer - U Can't Touch This
TTITLE11=UB40 - Kingston Town
TTITLE12=Toybox - Best Friend
TTITLE13=K-Ci and Jojo - All My Life
TTITLE14=Matthias Reim - Verdammt Ich Lieb Dich
TTITLE15=*NSYNC - Thinking of You (I Drive Myself Crazy)
TTITLE16=Scooter - How Much Is The Fish?
TTITLE17=Gordon - Kon Ik Maar Even Bij Je Zijn
TTITLE18=Undercover - Baker Street
EXTD=
EXTT0=
EXTT1=
EXTT2=
EXTT3=
EXTT4=
EXTT5=
EXTT6=
EXTT7=
EXTT8=
EXTT9=
EXTT10=
EXTT11=
EXTT12=
EXTT13=
EXTT14=
EXTT15=
EXTT16=
EXTT17=
EXTT18=
PLAYORDER=
